REM MD5 a707b8f7d66dfd2b4454bf13fe97dc88
FILE "Tekken 2 (USA).bin" BINARY
  TRACK 01 MODE2/2352
    INDEX 01 00:00:00
  TRACK 02 AUDIO
    INDEX 00 67:49:64
    INDEX 01 67:51:64
  TRACK 03 AUDIO
    INDEX 00 70:20:29
    INDEX 01 70:22:29
REM LEADOUT 70:56:29
